<svg width="880" height="39" viewBox="0 0 880 39" fill="none" xmlns="http://www.w3.org/2000/svg">
<line y1="38" x2="880" y2="38" stroke="#CDCDCD" stroke-width="2"/>
<path d="M515.519 8.39692C515.493 8.37125 515.493 8.37125 515.467 8.34557C515.128 8.01182 514.632 7.78076 514.111 7.78076H488.929C488.408 7.78076 487.912 7.98615 487.574 8.34557C487.235 8.67933 487 9.16712 487 9.68058V28.3194C487 28.8328 487.209 29.3206 487.574 29.6544C487.912 29.9881 488.408 30.2192 488.929 30.2192H514.111C514.632 30.2192 515.128 30.0138 515.467 29.6544C515.805 29.3206 516.04 28.8328 516.04 28.3194V9.68058C516.04 9.19279 515.831 8.73067 515.519 8.39692ZM514.632 28.3194C514.632 28.4477 514.58 28.6018 514.476 28.6788C514.372 28.7815 514.241 28.8328 514.111 28.8328H488.929C488.799 28.8328 488.642 28.7815 488.564 28.6788C488.46 28.5761 488.408 28.4477 488.408 28.3194V9.68058C488.408 9.52654 488.46 9.39818 488.564 9.32116C488.668 9.21846 488.799 9.16712 488.929 9.16712H514.111C514.241 9.16712 514.398 9.21846 514.476 9.32116L514.502 9.34683C514.58 9.44952 514.632 9.55222 514.632 9.68058V28.3194Z" fill="#010101" stroke="#010101" stroke-width="0.4"/>
<path d="M511.66 11.9141C511.347 11.606 510.93 11.4006 510.435 11.4006H492.604C492.135 11.4006 491.692 11.5803 491.379 11.8884C491.066 12.1965 490.858 12.633 490.858 13.0951V23.8265V24.8791C490.858 25.3412 491.04 25.7777 491.379 26.0857C491.692 26.3938 492.135 26.5992 492.604 26.5992H503.709H510.435C510.904 26.5992 511.347 26.4195 511.66 26.0857C511.973 25.7777 512.181 25.3412 512.181 24.8791V21.7983V13.1207C512.181 12.6586 511.999 12.2222 511.66 11.9141ZM492.604 25.1872V25.2128C492.526 25.2128 492.422 25.1872 492.37 25.1102C492.317 25.0588 492.265 24.9818 492.265 24.8791V24.1089L496.593 19.8215L500.268 23.4671L502.015 25.1872H492.604ZM510.774 24.9048C510.774 24.9818 510.748 25.0845 510.67 25.1358C510.617 25.1872 510.513 25.2385 510.435 25.2385H503.996V25.2128L503.579 24.8021L501.754 23.0049L506.733 18.0757L510.774 22.0807V24.9048ZM510.774 20.1295L507.229 16.6123C506.968 16.3556 506.525 16.3299 506.238 16.6123L500.764 22.0294L497.088 18.3838C496.827 18.127 496.384 18.1014 496.097 18.3838L492.265 22.1834V13.1207C492.265 13.018 492.291 12.941 492.37 12.8897C492.422 12.8383 492.526 12.787 492.604 12.787H510.435C510.513 12.787 510.617 12.8127 510.67 12.8897C510.722 12.941 510.774 13.0437 510.774 13.1207V20.1295Z" fill="#010101" stroke="#010101" stroke-width="0.4"/>
<path d="M500.659 18.2811C501.638 18.2811 502.432 17.4995 502.432 16.5353C502.432 15.5712 501.638 14.7896 500.659 14.7896C499.68 14.7896 498.887 15.5712 498.887 16.5353C498.887 17.4995 499.68 18.2811 500.659 18.2811Z" fill="#010101" stroke="#010101" stroke-width="0.4"/>
<path d="M126.58 15.4C126.58 13.46 125.32 11.94 121.98 11.94C121.1 11.94 120.02 11.96 119.16 12C118.48 12.02 117.94 12.58 117.94 13.24V24.78C117.94 25.44 118.5 26.02 119.16 26.04C120 26.06 121.02 26.08 121.84 26.08C124.8 26.08 127.04 24.76 127.04 21.88C127.04 20.02 125.96 18.96 124.58 18.6C125.78 18.02 126.58 17 126.58 15.4ZM120.4 19.98H122.14C123.68 19.98 124.58 20.58 124.58 21.76C124.58 23.08 123.68 23.78 122.02 23.78C121.32 23.78 120.74 23.72 120.4 23.68V19.98ZM120.4 17.84V14.3C120.84 14.26 121.38 14.24 121.94 14.24C123.26 14.24 124.14 14.84 124.14 15.98C124.14 17.26 123.2 17.84 122.06 17.84H120.4Z" fill="black"/>
<path d="M137.6 19.7V12.72C137.6 12.28 137.22 11.9 136.76 11.9C136.28 11.9 135.9 12.28 135.9 12.72V20.02C135.9 24.12 138.34 26.18 141.7 26.18C144.56 26.18 147.12 24.44 147.12 20.16V12.72C147.12 12.28 146.74 11.9 146.28 11.9C145.8 11.9 145.42 12.28 145.42 12.72V19.82C145.42 23 144 24.58 141.7 24.58C139.08 24.58 137.6 22.74 137.6 19.7Z" fill="black"/>
<path d="M134 28H149.02V29H134V28Z" fill="black"/>
<line x1="163" y1="4.37114e-08" x2="163" y2="39" stroke="#CDCDCD" stroke-width="2"/>
<line x1="104" y1="4.37114e-08" x2="104" y2="39" stroke="#CDCDCD" stroke-width="2"/>
<line x1="245" y1="4.37114e-08" x2="245" y2="39" stroke="#CDCDCD" stroke-width="2"/>
<line x1="360" y1="4.37114e-08" x2="360" y2="39" stroke="#CDCDCD" stroke-width="2"/>
<line x1="442" y1="4.37114e-08" x2="442" y2="39" stroke="#CDCDCD" stroke-width="2"/>
<line x1="530" y1="4.37114e-08" x2="530" y2="39" stroke="#CDCDCD" stroke-width="2"/>
<line x1="589" y1="4.37114e-08" x2="589" y2="39" stroke="#CDCDCD" stroke-width="2"/>
<line x1="641" y1="4.37114e-08" x2="641" y2="39" stroke="#CDCDCD" stroke-width="2"/>
<line x1="688" y1="4.37114e-08" x2="688" y2="39" stroke="#CDCDCD" stroke-width="2"/>
<line x1="741" y1="4.37114e-08" x2="741" y2="39" stroke="#CDCDCD" stroke-width="2"/>
<line x1="817" y1="4.37114e-08" x2="817" y2="39" stroke="#CDCDCD" stroke-width="2"/>
<path d="M553.82 19.58L554.98 22.4C555.14 22.8 555.5 23.16 556.18 23.16C556.8 23.16 557.32 22.66 557.32 22.04C557.32 21.88 557.28 21.72 557.22 21.56L552.26 9.9C552.06 9.44 551.68 8.9 550.92 8.9C550.12 8.9 549.74 9.44 549.54 9.9L544.56 21.6C544.5 21.74 544.46 21.9 544.46 22.04C544.46 22.64 544.94 23.16 545.6 23.16C546.08 23.16 546.48 22.94 546.66 22.48L547.84 19.58H553.82ZM550.84 12.26L552.88 17.28H548.78L550.84 12.26Z" fill="black"/>
<path d="M476 8H468C467.448 8 467 8.44773 467 9.00001C467 9.55229 467.448 10 468 10H473.586L463.293 20.2929C462.902 20.6835 462.902 21.3166 463.293 21.7071C463.488 21.9024 463.744 22 464 22C464.256 22 464.512 21.9024 464.707 21.7071L475 11.4142V17C475 17.5523 475.448 18 476 18C476.552 18 477 17.5523 477 17V9.00001C477 8.44773 476.552 8 476 8Z" fill="black"/>
<path d="M472 18C471.448 18 471 18.4477 471 19V28H457V14H466C466.552 14 467 13.5522 467 13C467 12.4477 466.552 12 466 12H456C455.448 12 455 12.4477 455 13V29C455 29.5523 455.448 30 456 30H472C472.552 30 473 29.5523 473 29V19C473 18.4477 472.552 18 472 18Z" fill="black"/>
<path d="M178.14 15.24V25C178.14 25.64 178.66 26.16 179.3 26.16C179.92 26.16 180.44 25.64 180.44 25V13.12C180.44 12.48 179.92 11.96 179.28 11.96C178.98 11.96 178.62 12.08 178.38 12.26L175.92 14.12C175.64 14.34 175.48 14.66 175.48 15C175.48 15.24 175.56 15.5 175.74 15.7C175.96 15.96 176.28 16.1 176.62 16.1C176.86 16.1 177.12 16.02 177.34 15.84L178.14 15.24ZM185.679 15.24V25C185.679 25.64 186.199 26.16 186.839 26.16C187.459 26.16 187.979 25.64 187.979 25V13.12C187.979 12.48 187.459 11.96 186.819 11.96C186.519 11.96 186.159 12.08 185.919 12.26L183.459 14.12C183.179 14.34 183.019 14.66 183.019 15C183.019 15.24 183.099 15.5 183.279 15.7C183.499 15.96 183.819 16.1 184.159 16.1C184.399 16.1 184.659 16.02 184.879 15.84L185.679 15.24ZM197.896 19.92C198.456 19.3 199.176 18.94 199.956 18.94C201.476 18.94 202.316 19.98 202.316 21.42C202.316 22.92 201.396 24.08 199.796 24.08C199.036 24.08 198.516 23.96 197.896 23.56V19.92ZM195.596 28.88C195.596 29.5 196.096 30 196.756 30C197.396 30 197.896 29.5 197.896 28.88V25.78C198.416 26.08 199.196 26.22 199.996 26.22C202.876 26.22 204.756 24.1 204.756 21.36C204.756 18.7 203.156 16.78 200.676 16.78C199.516 16.78 198.456 17.26 197.896 17.84C197.896 17.28 197.416 16.86 196.776 16.86C196.056 16.86 195.596 17.32 195.596 18.16V28.88ZM210.949 23.96C210.669 23.96 210.389 24.06 209.889 24.06C209.129 24.06 208.849 23.42 208.849 22.44V19.16H210.629C211.249 19.16 211.749 18.66 211.749 18.08C211.749 17.5 211.249 17 210.629 17H208.849V15.62C208.849 15 208.349 14.5 207.709 14.5C207.049 14.5 206.549 15 206.549 15.62V22.58C206.549 24.88 207.309 26.2 209.349 26.2C210.089 26.2 210.669 26.1 211.249 25.8C211.669 25.58 211.869 25.24 211.869 24.88C211.869 24.42 211.589 23.96 210.949 23.96Z" fill="black"/>
<path d="M232 18L226.5 23L221 18" stroke="#979797" stroke-width="2" stroke-linecap="round" stroke-linejoin="round"/>
<path d="M91 18L85.5 23L80 18" stroke="#979797" stroke-width="2" stroke-linecap="round" stroke-linejoin="round"/>
<line x1="259" y1="13" x2="280" y2="13" stroke="black" stroke-width="2" stroke-linecap="round"/>
<line x1="259" y1="25" x2="280" y2="25" stroke="black" stroke-width="2" stroke-linecap="round"/>
<line x1="259" y1="19" x2="271" y2="19" stroke="black" stroke-width="2" stroke-linecap="round"/>
<line x1="759" y1="14" x2="773" y2="14" stroke="black" stroke-width="2" stroke-linecap="round"/>
<line x1="759" y1="26" x2="773" y2="26" stroke="black" stroke-width="2" stroke-linecap="round"/>
<line x1="759" y1="20" x2="773" y2="20" stroke="black" stroke-width="2" stroke-linecap="round"/>
<line x1="292" y1="13" x2="313" y2="13" stroke="black" stroke-width="2" stroke-linecap="round"/>
<line x1="292" y1="25" x2="313" y2="25" stroke="black" stroke-width="2" stroke-linecap="round"/>
<line x1="297" y1="19" x2="309" y2="19" stroke="black" stroke-width="2" stroke-linecap="round"/>
<line x1="325" y1="13" x2="346" y2="13" stroke="black" stroke-width="2" stroke-linecap="round"/>
<line x1="325" y1="25" x2="346" y2="25" stroke="black" stroke-width="2" stroke-linecap="round"/>
<line x1="334" y1="19" x2="346" y2="19" stroke="black" stroke-width="2" stroke-linecap="round"/>
<line x1="544.5" y1="26.5" x2="557.5" y2="26.5" stroke="black" stroke-width="3" stroke-linecap="round"/>
<path d="M603.28 18.92C602.88 19.14 602.66 19.38 602.66 19.76C602.66 20.14 602.88 20.4 603.28 20.64L610.3 24.72C610.5 24.84 610.7 24.88 610.88 24.88C611.46 24.88 611.94 24.44 611.94 23.84C611.94 23.3 611.68 23.04 611.3 22.82L605.8 19.76L611.3 16.74C611.68 16.52 611.94 16.18 611.94 15.72C611.94 15.16 611.5 14.66 610.9 14.66C610.7 14.66 610.5 14.72 610.28 14.84L603.28 18.92ZM619.414 14.84C619.194 14.72 618.994 14.66 618.794 14.66C618.194 14.66 617.754 15.16 617.754 15.72C617.754 16.18 618.014 16.52 618.394 16.74L623.894 19.76L618.394 22.82C618.014 23.04 617.754 23.3 617.754 23.84C617.754 24.44 618.234 24.88 618.814 24.88C618.994 24.88 619.194 24.84 619.394 24.72L626.414 20.64C626.814 20.4 627.034 20.14 627.034 19.76C627.034 19.38 626.814 19.14 626.414 18.92L619.414 14.84Z" fill="black"/>
<path d="M655.32 20.8C655.74 21.12 656.06 21.68 656.06 22.66V24.9C656.06 26.94 656.86 27.96 659.2 27.96H659.52C660.28 27.96 660.74 27.52 660.74 26.86C660.74 26.28 660.32 25.8 659.66 25.8C658.72 25.8 658.36 25.42 658.36 24.1V21.76C658.36 20.46 657.76 19.6 656.86 19.48C657.76 19.36 658.36 18.5 658.36 17.2V14.86C658.36 13.54 658.72 13.16 659.66 13.16C660.32 13.16 660.74 12.68 660.74 12.1C660.74 11.44 660.28 11 659.52 11H659.2C656.86 11 656.06 12.02 656.06 14.06V16.3C656.06 17.28 655.76 17.84 655.32 18.18C654.54 18.78 654.28 19.02 654.28 19.48C654.28 19.94 654.54 20.18 655.32 20.8ZM665.932 15.98C665.932 15.36 665.432 14.86 664.792 14.86C664.132 14.86 663.632 15.36 663.632 15.98V23.04C663.632 23.66 664.132 24.16 664.792 24.16C665.432 24.16 665.932 23.66 665.932 23.04V15.98ZM664.832 10.42C664.052 10.42 663.392 10.94 663.392 11.76C663.392 12.68 664.052 13.2 664.832 13.2C665.492 13.2 666.152 12.68 666.152 11.76C666.152 10.94 665.492 10.42 664.832 10.42ZM674.259 18.18C673.819 17.84 673.519 17.28 673.519 16.3V14.06C673.519 12.02 672.719 11 670.379 11H670.059C669.299 11 668.839 11.44 668.839 12.1C668.839 12.68 669.259 13.16 669.919 13.16C670.859 13.16 671.219 13.54 671.219 14.86V17.2C671.219 18.5 671.819 19.36 672.719 19.48C671.819 19.6 671.219 20.46 671.219 21.76V24.1C671.219 25.42 670.859 25.8 669.919 25.8C669.259 25.8 668.839 26.28 668.839 26.86C668.839 27.52 669.299 27.96 670.059 27.96H670.379C672.719 27.96 673.519 26.94 673.519 24.9V22.66C673.519 21.68 673.839 21.12 674.259 20.8C675.039 20.18 675.299 19.94 675.299 19.48C675.299 19.02 675.039 18.78 674.259 18.18Z" fill="black"/>
<path d="M576 18L570.5 23L565 18" stroke="#979797" stroke-width="2" stroke-linecap="round" stroke-linejoin="round"/>
<line x1="374" y1="13" x2="395" y2="13" stroke="black" stroke-width="2" stroke-linecap="round"/>
<line x1="374" y1="25" x2="395" y2="25" stroke="black" stroke-width="2" stroke-linecap="round"/>
<path d="M395 21L390 19L395 17" stroke="#010101" stroke-width="1.6" stroke-linecap="round" stroke-linejoin="round"/>
<path d="M407 21L412 19L407 17" stroke="#010101" stroke-width="1.6" stroke-linecap="round" stroke-linejoin="round"/>
<line x1="374" y1="19" x2="386" y2="19" stroke="black" stroke-width="2" stroke-linecap="round"/>
<line x1="407" y1="13" x2="428" y2="13" stroke="black" stroke-width="2" stroke-linecap="round"/>
<line x1="407" y1="25" x2="428" y2="25" stroke="black" stroke-width="2" stroke-linecap="round"/>
<line x1="416" y1="19" x2="428" y2="19" stroke="black" stroke-width="2" stroke-linecap="round"/>
<path d="M710.12 20L712.88 16.808C713.024 16.64 713.096 16.424 713.096 16.208C713.096 15.968 713 15.704 712.808 15.536L712.304 15.128C712.136 14.984 711.944 14.912 711.728 14.912C711.488 14.912 711.248 15.008 711.08 15.2L707.504 19.328C707.336 19.52 707.264 19.76 707.264 20C707.264 20.24 707.336 20.48 707.504 20.672L710.984 24.8C711.152 24.992 711.416 25.112 711.656 25.112C711.872 25.112 712.064 25.04 712.232 24.896L712.76 24.488C712.952 24.32 713.072 24.056 713.072 23.816C713.072 23.6 713 23.408 712.856 23.24L710.12 20ZM704.888 20L707.648 16.808C707.792 16.64 707.864 16.424 707.864 16.208C707.864 15.968 707.768 15.704 707.576 15.536L707.072 15.128C706.904 14.984 706.712 14.912 706.496 14.912C706.256 14.912 706.016 15.008 705.848 15.2L702.272 19.328C702.104 19.52 702.032 19.76 702.032 20C702.032 20.24 702.104 20.48 702.272 20.672L705.752 24.8C705.92 24.992 706.184 25.112 706.424 25.112C706.64 25.112 706.832 25.04 707 24.896L707.528 24.488C707.72 24.32 707.84 24.056 707.84 23.816C707.84 23.6 707.768 23.408 707.624 23.24L704.888 20ZM722.796 15.536C722.604 15.704 722.508 15.968 722.508 16.208C722.508 16.424 722.58 16.64 722.724 16.808L725.484 20L722.748 23.24C722.604 23.408 722.532 23.6 722.532 23.816C722.532 24.056 722.652 24.32 722.844 24.488L723.372 24.896C723.54 25.04 723.732 25.112 723.948 25.112C724.188 25.112 724.452 24.992 724.62 24.8L728.1 20.72C728.268 20.528 728.364 20.264 728.364 20.024C728.364 19.76 728.268 19.52 728.1 19.328L724.524 15.2C724.356 15.008 724.116 14.912 723.852 14.912C723.66 14.912 723.444 14.96 723.3 15.128L722.796 15.536ZM717.54 15.536C717.348 15.704 717.252 15.968 717.252 16.208C717.252 16.424 717.324 16.64 717.468 16.808L720.228 20L717.492 23.24C717.348 23.408 717.276 23.6 717.276 23.816C717.276 24.056 717.396 24.32 717.588 24.488L718.116 24.896C718.284 25.04 718.476 25.112 718.692 25.112C718.932 25.112 719.196 24.992 719.364 24.8L722.844 20.72C723.012 20.528 723.108 20.264 723.108 20.024C723.108 19.76 723.012 19.52 722.844 19.328L719.268 15.2C719.1 15.008 718.86 14.912 718.596 14.912C718.404 14.912 718.188 14.96 718.044 15.128L717.54 15.536Z" fill="black"/>
<circle cx="756" cy="14" r="1" fill="#010101"/>
<circle cx="756" cy="20" r="1" fill="#010101"/>
<circle cx="756" cy="26" r="1" fill="#010101"/>
<line x1="787" y1="14" x2="801" y2="14" stroke="black" stroke-width="2" stroke-linecap="round"/>
<line x1="787" y1="26" x2="801" y2="26" stroke="black" stroke-width="2" stroke-linecap="round"/>
<line x1="787" y1="20" x2="801" y2="20" stroke="black" stroke-width="2" stroke-linecap="round"/>
<path d="M782.78 13.565V15.77C782.78 15.895 782.885 16 783.01 16H783.3C783.425 16 783.53 15.895 783.53 15.77V12.73C783.53 12.605 783.425 12.5 783.3 12.5H783.11C783.005 12.5 782.935 12.54 782.855 12.6L782.195 13.08C782.13 13.125 782.095 13.195 782.095 13.27C782.095 13.315 782.11 13.365 782.14 13.405L782.295 13.62C782.34 13.685 782.415 13.72 782.485 13.72C782.535 13.72 782.58 13.705 782.62 13.675L782.78 13.565Z" fill="black"/>
<path d="M784.395 21.53C784.395 21.405 784.29 21.3 784.165 21.3H783.105C783.365 21.1 784.275 20.39 784.275 19.405C784.275 18.91 783.925 18.46 783.245 18.46C782.71 18.46 782.325 18.71 782.15 19.14C782.135 19.17 782.13 19.205 782.13 19.235C782.13 19.32 782.18 19.395 782.255 19.43L782.495 19.53C782.545 19.55 782.585 19.56 782.625 19.56C782.715 19.56 782.78 19.505 782.845 19.405C782.92 19.29 783.025 19.21 783.155 19.21C783.355 19.21 783.475 19.305 783.475 19.555C783.475 20.13 782.81 20.75 782.255 21.285C782.18 21.355 782.135 21.42 782.135 21.52V21.77C782.135 21.895 782.24 22 782.365 22H784.165C784.29 22 784.395 21.895 784.395 21.77V21.53Z" fill="black"/>
<path d="M783.21 24.44C782.85 24.44 782.55 24.565 782.265 24.785C782.21 24.825 782.18 24.895 782.18 24.965C782.18 25.015 782.195 25.07 782.225 25.11L782.345 25.28C782.395 25.35 782.465 25.385 782.54 25.385C782.59 25.385 782.64 25.37 782.685 25.345C782.84 25.25 782.99 25.19 783.14 25.19C783.375 25.19 783.46 25.335 783.46 25.485C783.46 25.725 783.245 25.835 782.98 25.835C782.87 25.835 782.78 25.925 782.78 26.03V26.37C782.78 26.49 782.875 26.585 783 26.585C783.39 26.585 783.595 26.705 783.595 26.97C783.595 27.15 783.46 27.31 783.155 27.31C783.005 27.31 782.825 27.225 782.635 27.075C782.58 27.03 782.52 27.01 782.465 27.01C782.4 27.01 782.34 27.035 782.285 27.09L782.115 27.26C782.07 27.305 782.05 27.37 782.05 27.435C782.05 27.49 782.065 27.55 782.105 27.59C782.43 27.935 782.77 28.06 783.205 28.06C783.875 28.06 784.395 27.66 784.395 27C784.395 26.58 784.17 26.255 783.74 26.16C784.09 25.995 784.26 25.75 784.26 25.335C784.26 24.785 783.825 24.44 783.21 24.44Z" fill="black"/>
<path d="M831.84 23.832C831.84 25.92 833.256 27.144 835.224 27.144C836.688 27.144 837.84 26.568 838.416 25.848C838.416 26.616 838.896 27.144 839.592 27.144C840.336 27.144 840.816 26.52 840.816 25.92V20.424C840.816 17.568 839.688 15.936 836.496 15.936C835.464 15.936 834.456 16.2 833.736 16.512C833.232 16.728 832.944 17.112 832.944 17.544C832.944 17.688 832.968 17.832 833.04 18C833.232 18.384 833.568 18.576 833.976 18.576C834.168 18.576 834.336 18.528 834.528 18.48C834.984 18.336 835.488 18.24 836.208 18.24C837.72 18.24 838.224 19.104 838.224 20.688C838.224 20.808 838.224 20.904 838.224 21.024C837.696 20.64 836.736 20.328 835.776 20.328C833.592 20.328 831.84 21.456 831.84 23.832ZM838.224 23.832C837.888 24.312 837.288 24.816 836.136 24.816C835.272 24.816 834.6 24.36 834.6 23.544C834.6 22.632 835.416 22.2 836.328 22.2C837.12 22.2 837.744 22.368 838.224 22.728V23.832Z" fill="black"/>
<path d="M864.395 27.53C864.395 27.405 864.29 27.3 864.165 27.3H863.105C863.365 27.1 864.275 26.39 864.275 25.405C864.275 24.91 863.925 24.46 863.245 24.46C862.71 24.46 862.325 24.71 862.15 25.14C862.135 25.17 862.13 25.205 862.13 25.235C862.13 25.32 862.18 25.395 862.255 25.43L862.495 25.53C862.545 25.55 862.585 25.56 862.625 25.56C862.715 25.56 862.78 25.505 862.845 25.405C862.92 25.29 863.025 25.21 863.155 25.21C863.355 25.21 863.475 25.305 863.475 25.555C863.475 26.13 862.81 26.75 862.255 27.285C862.18 27.355 862.135 27.42 862.135 27.52V27.77C862.135 27.895 862.24 28 862.365 28H864.165C864.29 28 864.395 27.895 864.395 27.77V27.53Z" fill="black"/>
<path d="M850.84 23.832C850.84 25.92 852.256 27.144 854.224 27.144C855.688 27.144 856.84 26.568 857.416 25.848C857.416 26.616 857.896 27.144 858.592 27.144C859.336 27.144 859.816 26.52 859.816 25.92V20.424C859.816 17.568 858.688 15.936 855.496 15.936C854.464 15.936 853.456 16.2 852.736 16.512C852.232 16.728 851.944 17.112 851.944 17.544C851.944 17.688 851.968 17.832 852.04 18C852.232 18.384 852.568 18.576 852.976 18.576C853.168 18.576 853.336 18.528 853.528 18.48C853.984 18.336 854.488 18.24 855.208 18.24C856.72 18.24 857.224 19.104 857.224 20.688C857.224 20.808 857.224 20.904 857.224 21.024C856.696 20.64 855.736 20.328 854.776 20.328C852.592 20.328 850.84 21.456 850.84 23.832ZM857.224 23.832C856.888 24.312 856.288 24.816 855.136 24.816C854.272 24.816 853.6 24.36 853.6 23.544C853.6 22.632 854.416 22.2 855.328 22.2C856.12 22.2 856.744 22.368 857.224 22.728V23.832Z" fill="black"/>
<path d="M22.98 23.42L24.22 26.44C24.34 26.78 24.68 27 25.04 27H25.9C26.36 27 26.68 26.64 26.68 26.22C26.68 26.14 26.66 26.04 26.62 25.94L21.38 13.52C21.24 13.18 20.9 12.96 20.54 12.96H19.58C19.22 12.96 18.88 13.18 18.74 13.52L13.5 25.94C13.46 26.04 13.44 26.14 13.44 26.22C13.44 26.64 13.76 27 14.22 27H14.94C15.3 27 15.64 26.78 15.76 26.44L17 23.42H22.98ZM20 16.14L22.04 21.12H17.94L20 16.14ZM33.2611 18.16C31.9411 18.16 30.6611 18.86 30.0811 19.84C30.2011 18.42 30.7011 17.08 32.0011 16.48C33.5811 15.7 34.9011 16.24 36.4011 14.76C36.5411 14.64 36.6011 14.46 36.6011 14.28C36.6011 14.08 36.5411 13.9 36.4011 13.76L35.9411 13.24C35.7811 13.06 35.5811 12.98 35.3811 12.98C35.1411 12.98 34.8611 13.1 34.6011 13.26C33.7811 13.74 32.7611 13.6 31.1611 14.28C28.4211 15.46 27.7611 18.58 27.7611 21.52C27.7611 25.02 29.6211 27.22 32.6411 27.22C35.4811 27.22 37.3611 25.1 37.3611 22.58C37.3611 19.88 35.7411 18.16 33.2611 18.16ZM32.6811 20.3C34.1411 20.3 34.9011 21.34 34.9011 22.68C34.9011 23.98 34.0411 25.08 32.5811 25.08C31.1211 25.08 30.2411 23.74 30.2211 22C30.5211 21.08 31.4011 20.3 32.6811 20.3ZM39.32 18.68C39.1 18.82 38.96 19.08 38.96 19.34C38.96 19.46 39 19.58 39.06 19.68L39.2 19.9C39.34 20.16 39.6 20.3 39.84 20.3C39.98 20.3 40.1 20.26 40.22 20.2C40.84 19.9 41.5 19.64 42.12 19.64C43.12 19.64 43.7 20 43.7 20.62C43.7 21.2 43.26 21.72 42.5 21.72H41.66C41.26 21.72 40.92 22.06 40.92 22.48C40.92 22.92 41.26 23.26 41.66 23.26H42.6C43.48 23.26 43.96 23.68 43.96 24.28C43.96 24.92 43.32 25.38 42.12 25.38C41.48 25.38 40.78 25.12 40.16 24.72C40 24.62 39.84 24.58 39.7 24.58C39.46 24.58 39.24 24.68 39.08 24.9L38.84 25.16C38.74 25.28 38.7 25.44 38.7 25.6C38.7 25.82 38.78 26.06 38.96 26.18C40 27.04 40.96 27.22 42.32 27.22C44.76 27.22 46.4 26.18 46.4 24.5C46.4 23.46 45.76 22.62 44.5 22.36C45.56 21.98 46.16 21.2 46.16 20.34C46.16 18.78 44.94 17.78 42.56 17.78C41.28 17.78 40.26 18.14 39.32 18.68ZM50.8169 27.12C52.0369 27.12 52.9969 26.64 53.4769 25.96V26.26C53.4769 26.66 53.8169 27 54.2169 27H54.7369C55.1369 27 55.4769 26.66 55.4769 26.26V21.52C55.4769 19.14 54.5369 17.78 51.8769 17.78C50.9569 17.78 50.0569 18.02 49.2769 18.38C49.0369 18.5 48.8569 18.76 48.8569 19.02C48.8569 19.14 48.8969 19.24 48.9369 19.34L49.0569 19.58C49.1969 19.86 49.4369 20 49.7369 20C49.8569 20 49.9769 19.98 50.0969 19.94C50.5169 19.8 50.9569 19.7 51.6369 19.7C52.8969 19.7 53.3169 20.42 53.3169 21.74C53.3169 21.84 53.3169 21.92 53.3169 22.02C52.8769 21.7 52.0769 21.44 51.2769 21.44C49.4569 21.44 47.9969 22.38 47.9969 24.36C47.9969 26.1 49.1769 27.12 50.8169 27.12ZM53.3169 24.36C53.0369 24.76 52.5369 25.18 51.5769 25.18C50.8569 25.18 50.2969 24.8 50.2969 24.12C50.2969 23.36 50.9769 23 51.7369 23C52.3969 23 52.9169 23.14 53.3169 23.44V24.36ZM66.8947 29.1C67.2947 29.1 67.6347 28.76 67.6347 28.36V25.6C67.6347 25.2 67.2947 24.86 66.8947 24.86H66.1347V18.74C66.1347 18.34 65.7947 18 65.3947 18H64.5747C64.1747 18 63.8347 18.34 63.8347 18.74V24.86H60.1347V18.74C60.1347 18.34 59.7947 18 59.3947 18H58.5747C58.1747 18 57.8347 18.34 57.8347 18.74V26.26C57.8347 26.66 58.1747 27 58.5747 27H65.4747V28.36C65.4747 28.76 65.8147 29.1 66.2147 29.1H66.8947Z" fill="black"/>
</svg>
